<svg width="184" height="184" viewBox="0 0 184 184" fill="none" xmlns="http://www.w3.org/2000/svg">
<path d="M0.00631098 49.2578V0H4.02698H8.04765L8.185 4.32153C8.33417 9.01481 8.79979 10.464 10.8453 12.6018C13.1706 15.0319 12.9655 14.9931 23.466 14.9931C34.0131 14.9931 33.6518 15.0636 36.2226 12.5005C38.2581 10.4711 38.8119 8.66949 38.8119 4.0763V0H42.8688H46.9258V91.5458V183.092H42.8688H38.8119V179.188C38.8119 173.548 37.8565 171.493 34.0955 169.047L32.6383 168.099H23.6424C15.1124 168.099 14.5733 168.138 13.2309 168.857C11.3304 169.875 10.1108 171.149 9.12854 173.143C8.44719 174.526 8.29093 175.489 8.18641 178.947L8.06111 183.092H4.03055H0L0.00631098 49.2578ZM32.4417 136.994C34.8958 136.201 37.4397 133.756 38.2242 131.435C39.1035 128.834 39.0845 115.227 38.198 112.754C37.4317 110.616 35.5079 108.591 33.3277 107.626C31.8047 106.953 31.0034 106.892 23.6858 106.89C14.3252 106.888 13.253 107.122 10.8164 109.699C8.40047 112.255 8.12049 113.554 8.11846 122.212C8.11648 130.967 8.38946 132.165 10.9798 134.761C13.4717 137.259 14.6938 137.536 23.3373 137.562C29.219 137.579 30.9674 137.47 32.4417 136.994H32.4417ZM33.7018 75.4583C35.7513 74.3771 36.8955 73.1726 37.9115 71.0267C38.7968 69.157 38.8115 68.991 38.7922 61.1091C38.7696 51.9619 38.5803 51.0897 36.0535 48.4931C33.7341 46.1096 32.5543 45.8611 23.5577 45.8611C17.405 45.8611 15.4838 45.9768 14.0955 46.4309C13.1374 46.7443 12.3535 47.1411 12.3535 47.3128C12.3535 47.4845 12.1872 47.625 11.9839 47.625C11.3371 47.625 9.83106 49.5034 8.96141 51.3948C8.15824 53.1415 8.1202 53.5654 8.1202 60.7687C8.1202 66.8712 8.23232 68.6455 8.70683 70.0517C9.51088 72.4346 10.7453 73.9557 12.859 75.1681L14.6466 76.1934L23.4713 76.1966C31.7617 76.1997 32.381 76.155 33.7018 75.4582V75.4583ZM64.5685 144.727C64.5725 104.231 64.5419 105.067 66.1332 101.989C66.9792 100.353 69.6573 97.8277 71.3766 97.0445C72.2119 96.664 73.9181 96.1791 75.1681 95.9669C76.762 95.6963 93.2511 95.6106 130.358 95.6801L183.274 95.7792L183.255 120.297C183.515 169.353 183.451 147.197 183.451 183.092L165.194 183.083L101.712 183.092H64.5647L64.5685 144.727V144.727ZM73.5605 86.9849C71.7627 86.4587 69.5035 85.3278 69.5035 84.9541C69.5035 84.796 69.2654 84.6667 68.9744 84.6667C68.6833 84.6667 68.4452 84.546 68.4452 84.3985C68.4452 84.251 68.0799 83.735 67.6335 83.2519C66.5498 82.0793 65.3847 79.8724 64.935 78.1403C64.6926 77.2068 64.5679 63.7447 64.5666 38.3646L64.5646 0H124.008H183.451L183.445 16.8451C183.274 87.3125 183.508 36.3023 183.274 87.3125L129.123 87.3552C88.6855 87.3871 74.6142 87.2933 73.5605 86.9849H73.5605Z" fill="#202C34"/>
</svg>
